HIERARCHY
ROOT Hips
{
  OFFSET -1.587 -4.788 -281.908
  CHANNELS 6 Xposition Yposition Zposition Zrotation Xrotation Yrotation
  JOINT LeftUpLeg
  {
    OFFSET 6.926 -6.195 1.746
    CHANNELS 6 Xposition Yposition Zposition Zrotation Xrotation Yrotation
    JOINT LeftLeg
    {
      OFFSET 0.000 -46.429 0.000
      CHANNELS 6 Xposition Yposition Zposition Zrotation Xrotation Yrotation
      JOINT LeftFoot
      {
        OFFSET -0.000 -36.338 -0.000
        CHANNELS 6 Xposition Yposition Zposition Zrotation Xrotation Yrotation
        End Site
        {
          OFFSET 0.000 -7.338 4.236
        }
      }
    }
  }
  JOINT RightUpLeg
  {
    OFFSET -6.492 -6.583 2.508
    CHANNELS 6 Xposition Yposition Zposition Zrotation Xrotation Yrotation
    JOINT RightLeg
    {
      OFFSET 0.000 -44.109 0.000
      CHANNELS 6 Xposition Yposition Zposition Zrotation Xrotation Yrotation
      JOINT RightFoot
      {
        OFFSET 0.000 -37.512 -0.000
        CHANNELS 6 Xposition Yposition Zposition Zrotation Xrotation Yrotation
        End Site
        {
          OFFSET 0.000 -7.559 4.364
        }
      }
    }
  }
  JOINT Spine
  {
    OFFSET 0.000 5.476 -5.476
    CHANNELS 6 Xposition Yposition Zposition Zrotation Xrotation Yrotation
    JOINT LeftShoulder
    {
      OFFSET -0.000 32.038 0.000
      CHANNELS 6 Xposition Yposition Zposition Zrotation Xrotation Yrotation
      JOINT LeftArm
      {
        OFFSET 16.060 0.000 -0.000
        CHANNELS 6 Xposition Yposition Zposition Zrotation Xrotation Yrotation
        JOINT LeftForeArm
        {
          OFFSET 24.657 0.000 0.000
          CHANNELS 6 Xposition Yposition Zposition Zrotation Xrotation Yrotation
          JOINT LeftHand
          {
            OFFSET 22.970 0.000 -0.000
            CHANNELS 6 Xposition Yposition Zposition Zrotation Xrotation Yrotation
            JOINT LeftHandThumb1
            {
            OFFSET 4.970 -0.620 3.390
            CHANNELS 6 Xposition Yposition Zposition Zrotation Xrotation Yrotation
              JOINT LeftHandThumb2
              {
              OFFSET 2.150 -0.000 0.000
              CHANNELS 6 Xposition Yposition Zposition Zrotation Xrotation Yrotation
                JOINT LeftHandThumb3
                {
                OFFSET 2.200 -0.000 0.000
                CHANNELS 6 Xposition Yposition Zposition Zrotation Xrotation Yrotation
                  JOINT LeftHandThumb4
                  {
                  OFFSET 1.700 -0.000 0.000
                  CHANNELS 6 Xposition Yposition Zposition Zrotation Xrotation Yrotation
                  }
                }
              }
            }
            JOINT LeftHandIndex1
            {
            OFFSET 8.730 0.680 2.070
            CHANNELS 6 Xposition Yposition Zposition Zrotation Xrotation Yrotation
              JOINT LeftHandIndex2
              {
              OFFSET 2.670 -0.000 0.000
              CHANNELS 6 Xposition Yposition Zposition Zrotation Xrotation Yrotation
                JOINT LeftHandIndex3
                {
                OFFSET 2.130 -0.000 0.000
                CHANNELS 6 Xposition Yposition Zposition Zrotation Xrotation Yrotation
                  JOINT LeftHandIndex4
                  {
                  OFFSET 1.800 -0.000 0.000
                  CHANNELS 6 Xposition Yposition Zposition Zrotation Xrotation Yrotation
                  }
                }
              }
            }
            JOINT LeftHandMiddle1
            {
            OFFSET 9.220 0.670 0.550
            CHANNELS 6 Xposition Yposition Zposition Zrotation Xrotation Yrotation
              JOINT LeftHandMiddle2
              {
              OFFSET 2.660 -0.000 0.000
              CHANNELS 6 Xposition Yposition Zposition Zrotation Xrotation Yrotation
                JOINT LeftHandMiddle3
                {
                OFFSET 2.280 -0.000 0.000
                CHANNELS 6 Xposition Yposition Zposition Zrotation Xrotation Yrotation
                  JOINT LeftHandMiddle4
                  {
                  OFFSET 1.500 -0.000 0.000
                  CHANNELS 6 Xposition Yposition Zposition Zrotation Xrotation Yrotation
                  }
                }
              }
            }
            JOINT LeftHandRing1
            {
            OFFSET 9.250 0.670 -1.130
            CHANNELS 6 Xposition Yposition Zposition Zrotation Xrotation Yrotation
              JOINT LeftHandRing2
              {
              OFFSET 2.470 -0.000 0.000
              CHANNELS 6 Xposition Yposition Zposition Zrotation Xrotation Yrotation
                JOINT LeftHandRing3
                {
                OFFSET 2.210 -0.000 0.000
                CHANNELS 6 Xposition Yposition Zposition Zrotation Xrotation Yrotation
                  JOINT LeftHandRing4
                  {
                  OFFSET 1.800 -0.000 0.000
                  CHANNELS 6 Xposition Yposition Zposition Zrotation Xrotation Yrotation
                  }
                }
              }
            }
            JOINT LeftHandPinky1
            {
            OFFSET 9.350 0.660 -2.720
            CHANNELS 6 Xposition Yposition Zposition Zrotation Xrotation Yrotation
              JOINT LeftHandPinky2
              {
              OFFSET 1.630 -0.000 0.000
              CHANNELS 6 Xposition Yposition Zposition Zrotation Xrotation Yrotation
                JOINT LeftHandPinky3
                {
                OFFSET 1.710 -0.000 0.000
                CHANNELS 6 Xposition Yposition Zposition Zrotation Xrotation Yrotation
                  JOINT LeftHandPinky4
                  {
                  OFFSET 1.800 -0.000 0.000
                  CHANNELS 6 Xposition Yposition Zposition Zrotation Xrotation Yrotation
                  }
                }
              }
            }
          }
        }
      }
    }
    JOINT RightShoulder
    {
      OFFSET -0.000 32.038 0.000
      CHANNELS 6 Xposition Yposition Zposition Zrotation Xrotation Yrotation
      JOINT RightArm
      {
        OFFSET -18.012 0.000 -0.000
        CHANNELS 6 Xposition Yposition Zposition Zrotation Xrotation Yrotation
        JOINT RightForeArm
        {
          OFFSET -22.610 0.000 0.000
          CHANNELS 6 Xposition Yposition Zposition Zrotation Xrotation Yrotation
          JOINT RightHand
          {
            OFFSET -22.013 0.000 -0.000
            CHANNELS 6 Xposition Yposition Zposition Zrotation Xrotation Yrotation
            JOINT RightHandThumb1
            {
            OFFSET -4.970 -0.620 3.390
            CHANNELS 6 Xposition Yposition Zposition Zrotation Xrotation Yrotation
              JOINT RightHandThumb2
              {
              OFFSET -2.150 0.000 0.000
              CHANNELS 6 Xposition Yposition Zposition Zrotation Xrotation Yrotation
                JOINT RightHandThumb3
                {
                OFFSET -2.200 0.000 0.000
                CHANNELS 6 Xposition Yposition Zposition Zrotation Xrotation Yrotation
                  JOINT RightHandThumb4
                  {
                  OFFSET -1.700 0.000 0.000
                  CHANNELS 6 Xposition Yposition Zposition Zrotation Xrotation Yrotation
                  }
                }
              }
            }
            JOINT RightHandIndex1
            {
            OFFSET -8.730 0.680 2.070
            CHANNELS 6 Xposition Yposition Zposition Zrotation Xrotation Yrotation
              JOINT RightHandIndex2
              {
              OFFSET -2.670 0.000 0.000
              CHANNELS 6 Xposition Yposition Zposition Zrotation Xrotation Yrotation
                JOINT RightHandIndex3
                {
                OFFSET -2.130 0.000 0.000
                CHANNELS 6 Xposition Yposition Zposition Zrotation Xrotation Yrotation
                  JOINT RightHandIndex4
                  {
                  OFFSET -1.800 0.000 0.000
                  CHANNELS 6 Xposition Yposition Zposition Zrotation Xrotation Yrotation
                  }
                }
              }
            }
            JOINT RightHandMiddle1
            {
            OFFSET -9.220 0.670 0.550
            CHANNELS 6 Xposition Yposition Zposition Zrotation Xrotation Yrotation
              JOINT RightHandMiddle2
              {
              OFFSET -2.660 0.000 0.000
              CHANNELS 6 Xposition Yposition Zposition Zrotation Xrotation Yrotation
                JOINT RightHandMiddle3
                {
                OFFSET -2.280 0.000 0.000
                CHANNELS 6 Xposition Yposition Zposition Zrotation Xrotation Yrotation
                  JOINT RightHandMiddle4
                  {
                  OFFSET -1.500 0.000 0.000
                  CHANNELS 6 Xposition Yposition Zposition Zrotation Xrotation Yrotation
                  }
                }
              }
            }
            JOINT RightHandRing1
            {
            OFFSET -9.250 0.670 -1.130
            CHANNELS 6 Xposition Yposition Zposition Zrotation Xrotation Yrotation
              JOINT RightHandRing2
              {
              OFFSET -2.470 0.000 0.000
              CHANNELS 6 Xposition Yposition Zposition Zrotation Xrotation Yrotation
                JOINT RightHandRing3
                {
                OFFSET -2.210 0.000 0.000
                CHANNELS 6 Xposition Yposition Zposition Zrotation Xrotation Yrotation
                  JOINT RightHandRing4
                  {
                  OFFSET -1.800 0.000 0.000
                  CHANNELS 6 Xposition Yposition Zposition Zrotation Xrotation Yrotation
                  }
                }
              }
            }
            JOINT RightHandPinky1
            {
            OFFSET -9.350 0.660 -2.720
            CHANNELS 6 Xposition Yposition Zposition Zrotation Xrotation Yrotation
              JOINT RightHandPinky2
              {
              OFFSET -1.630 0.000 0.000
              CHANNELS 6 Xposition Yposition Zposition Zrotation Xrotation Yrotation
                JOINT RightHandPinky3
                {
                OFFSET -1.710 0.000 0.000
                CHANNELS 6 Xposition Yposition Zposition Zrotation Xrotation Yrotation
                  JOINT RightHandPinky4
                  {
                  OFFSET -1.800 0.000 0.000
                  CHANNELS 6 Xposition Yposition Zposition Zrotation Xrotation Yrotation
                  }
                }
              }
            }
          }
        }
      }
    }
    JOINT Neck
    {
      OFFSET -0.000 32.038 0.000
      CHANNELS 6 Xposition Yposition Zposition Zrotation Xrotation Yrotation
      JOINT Head
      {
        OFFSET -0.000 21.016 -0.000
        CHANNELS 6 Xposition Yposition Zposition Zrotation Xrotation Yrotation
        End Site
        {
          OFFSET -0.000 0.084 -0.000
        }
      }
    }
  }
}
MOTION
Frames:	6
Frame Time:	0.0333333
0.815804 -12.2502 -281.987 3.34194 5.42624 -34.7624 7.40099 -6.5719 0.602794 15.1842 -25.6204 15.4712 5.96046e-06 -42.7117 -2.38419e-05 -5.24338 29.9237 0 1.19209e-05 -34.6648 0 -6.83124 -27.0582 -6.61735 -7.55852 -7.88517 3.65088 8.86632 -25.6642 11.0621 -2.38419e-05 -39.9235 2.38419e-05 3.00827 32.468 2.0239e-06 3.57628e-05 -33.8501 2.38419e-05 -22.2828 -40.321 -24.7402 1.19209e-05 5.73908 -5.73907 -2.34354 -8.66517 6.56202 -1.19209e-05 32.0382 -2.38419e-05 -14.1181 1.28066e-05 -17.0585 14.6088 1.15484e-05 4.76837e-05 -44.4456 -1.18228 -61.7341 23.4941 5.96046e-05 -5.96046e-06 2.71903e-05 -1.13552e-06 -103.103 26.5683 -3.57628e-05 4.76837e-05 18.9327 -0.00110318 -25.8389 0.0062 0.0497 0.0339 0 0 0 0 0.0215 0 0 0 0 0 0.022 0 0 0 0 0 0.017 0 0 0 0 -0.0068 0.0873 0.0207 0 0 0 0 0.0267 0 0 0 0 0 0.0213 0 0 0 0 0 0.018 0 0 0 0 -0.0067 0.0922 0.0055 0 0 0 0 0.0266 0 0 0 0 0 0.0228 0 0 0 0 0 0.015 0 0 0 0 -0.0067 0.0925 -0.0113 0 0 0 0 0.0247 0 0 0 0 0 0.0221 0 0 0 0 0 0.018 0 0 0 0 -0.0066 0.0935 -0.0272 0 0 0 0 0.0163 0 0 0 0 0 0.0171 0 0 0 0 0 0.018 0 0 0 0 -1.19209e-05 32.0382 -2.38419e-05 27.8337 8.53774e-07 11.2532 -21.9605 -1.19209e-05 2.38419e-05 29.907 -27.8855 70.6996 -20.1491 4.76837e-05 2.38419e-05 -4.18987e-05 9.49965e-06 101.034 -19.9319 -7.15256e-05 -2.38419e-05 -18.1896 0.397004 -20.3754 -0.0062 0.0497 0.0339 0 0 0 0 0.0215 0 0 0 0 0 0.022 0 0 0 0 0 0.017 0 0 0 0 0.0068 0.0873 0.0207 0 0 0 0 0.0267 0 0 0 0 0 0.0213 0 0 0 0 0 0.018 0 0 0 0 0.0067 0.0922 0.0055 0 0 0 0 0.0266 0 0 0 0 0 0.0228 0 0 0 0 0 0.015 0 0 0 0 0.0067 0.0925 -0.0113 0 0 0 0 0.0247 0 0 0 0 0 0.0221 0 0 0 0 0 0.018 0 0 0 0 0.0066 0.0935 -0.0272 0 0 0 0 0.0163 0 0 0 0 0 0.0171 0 0 0 0 0 0.018 0 0 0 0 -1.19209e-05 32.0382 -2.38419e-05 11.2094 -1.49387 0.29601 0 20.4174 4.76837e-05 1.06722e-05 -1.02453e-05 0 
0.992724 -12.6746 -282.117 3.0849 5.44974 -34.347 7.33701 -6.41445 0.542045 15.3313 -25.6993 15.6789 -5.96046e-06 -42.8991 -2.38419e-05 -5.39215 30.7727 1.98736e-06 -5.96046e-06 -35.3611 0 -6.62701 -27.5239 -6.45513 -7.5206 -7.65845 3.59235 8.75962 -25.5482 10.9445 2.38419e-05 -39.7564 2.38419e-05 3.33095 32.1984 2.01788e-06 2.38419e-05 -34.0723 0 -22.353 -40.5898 -24.87 1.19209e-05 5.78487 -5.78492 -2.44594 -8.62107 6.64409 -2.38419e-05 32.0382 7.15256e-05 -13.3889 8.53774e-06 -18.02 14.1869 5.02914e-06 -2.38419e-05 -44.038 -1.00469 -57.6838 24.078 0 7.07805e-06 1.40199e-05 2.46797e-06 -106.575 26.4991 0 -2.38419e-05 18.7771 0.000194668 -25.9346 0.0062 0.0497 0.0339 0 0 0 0 0.0215 0 0 0 0 0 0.022 0 0 0 0 0 0.017 0 0 0 0 -0.0068 0.0873 0.0207 0 0 0 0 0.0267 0 0 0 0 0 0.0213 0 0 0 0 0 0.018 0 0 0 0 -0.0067 0.0922 0.0055 0 0 0 0 0.0266 0 0 0 0 0 0.0228 0 0 0 0 0 0.015 0 0 0 0 -0.0067 0.0925 -0.0113 0 0 0 0 0.0247 0 0 0 0 0 0.0221 0 0 0 0 0 0.018 0 0 0 0 -0.0066 0.0935 -0.0272 0 0 0 0 0.0163 0 0 0 0 0 0.0171 0 0 0 0 0 0.018 0 0 0 0 -2.38419e-05 32.0382 7.15256e-05 27.194 -4.26887e-06 11.5383 -21.941 5.96046e-06 2.38419e-05 30.6694 -27.6238 66.4008 -20.289 0 -1.19209e-05 -3.40594e-07 2.40359e-06 106.13 -20.0918 4.76837e-05 2.38419e-05 -19.5056 0.331771 -22.262 -0.0062 0.0497 0.0339 0 0 0 0 0.0215 0 0 0 0 0 0.022 0 0 0 0 0 0.017 0 0 0 0 0.0068 0.0873 0.0207 0 0 0 0 0.0267 0 0 0 0 0 0.0213 0 0 0 0 0 0.018 0 0 0 0 0.0067 0.0922 0.0055 0 0 0 0 0.0266 0 0 0 0 0 0.0228 0 0 0 0 0 0.015 0 0 0 0 0.0067 0.0925 -0.0113 0 0 0 0 0.0247 0 0 0 0 0 0.0221 0 0 0 0 0 0.018 0 0 0 0 0.0066 0.0935 -0.0272 0 0 0 0 0.0163 0 0 0 0 0 0.0171 0 0 0 0 0 0.018 0 0 0 0 -2.38419e-05 32.0382 7.15256e-05 12.2226 -0.969534 0.210011 2.38419e-05 21.0545 2.38419e-05 9.8184e-06 -9.39151e-06 3.41509e-06 
1.15782 -12.7751 -282.217 3.08028 5.66063 -33.8573 7.3056 -6.29692 0.551653 14.964 -25.72 15.373 -2.38419e-05 -43.1949 -2.38419e-05 -5.16797 30.7301 -1.98648e-06 1.19209e-05 -35.8074 -2.38419e-05 -6.46323 -27.9562 -6.32675 -7.48403 -7.46091 3.54474 8.50293 -25.3138 10.6744 -1.19209e-05 -39.695 0 3.48045 31.5162 1.0015e-05 -1.19209e-05 -34.4174 4.76837e-05 -21.5969 -40.4519 -23.9971 3.57628e-05 5.86676 -5.86681 -2.05938 -8.79258 6.41962 -1.19209e-05 32.0382 -4.76837e-05 -13.9977 1.28066e-05 -18.5254 14.2177 0 2.38419e-05 -42.1949 -0.972406 -53.554 23.6217 -3.57628e-05 1.49012e-06 4.28118e-05 -1.12723e-05 -108.262 26.454 -2.38419e-05 -7.15256e-05 18.6646 0.00215671 -26.2333 0.0062 0.0497 0.0339 0 0 0 0 0.0215 0 0 0 0 0 0.022 0 0 0 0 0 0.017 0 0 0 0 -0.0068 0.0873 0.0207 0 0 0 0 0.0267 0 0 0 0 0 0.0213 0 0 0 0 0 0.018 0 0 0 0 -0.0067 0.0922 0.0055 0 0 0 0 0.0266 0 0 0 0 0 0.0228 0 0 0 0 0 0.015 0 0 0 0 -0.0067 0.0925 -0.0113 0 0 0 0 0.0247 0 0 0 0 0 0.0221 0 0 0 0 0 0.018 0 0 0 0 -0.0066 0.0935 -0.0272 0 0 0 0 0.0163 0 0 0 0 0 0.0171 0 0 0 0 0 0.018 0 0 0 0 -1.19209e-05 32.0382 -4.76837e-05 26.7311 -7.68396e-06 12.054 -21.631 -1.19209e-05 7.15256e-05 29.7551 -27.2147 61.9666 -20.4028 0 2.38419e-05 -1.58829e-05 1.24483e-05 110.246 -20.0722 2.38419e-05 -3.57628e-05 -20.783 0.291802 -24.0469 -0.0062 0.0497 0.0339 0 0 0 0 0.0215 0 0 0 0 0 0.022 0 0 0 0 0 0.017 0 0 0 0 0.0068 0.0873 0.0207 0 0 0 0 0.0267 0 0 0 0 0 0.0213 0 0 0 0 0 0.018 0 0 0 0 0.0067 0.0922 0.0055 0 0 0 0 0.0266 0 0 0 0 0 0.0228 0 0 0 0 0 0.015 0 0 0 0 0.0067 0.0925 -0.0113 0 0 0 0 0.0247 0 0 0 0 0 0.0221 0 0 0 0 0 0.018 0 0 0 0 0.0066 0.0935 -0.0272 0 0 0 0 0.0163 0 0 0 0 0 0.0171 0 0 0 0 0 0.018 0 0 0 0 -1.19209e-05 32.0382 -4.76837e-05 11.6967 -0.264042 0.0546626 1.19209e-05 21.6887 2.38419e-05 1.10991e-05 -8.96462e-06 1.70755e-06 
1.35485 -12.271 -282.341 2.99519 5.28095 -33.2646 7.3818 -6.2295 0.613284 13.0999 -24.7565 13.1996 -2.38419e-05 -42.7506 4.76837e-05 -3.58222 28.9014 9.75237e-06 0 -35.5108 4.76837e-05 -6.18 -28.4132 -6.08269 -7.55366 -7.35519 3.36494 8.02635 -24.0017 9.88117 -2.38419e-05 -39.4769 4.76837e-05 2.87453 29.5005 7.84762e-06 0 -34.9814 -2.38419e-05 -20.1521 -40.1376 -22.3343 1.19209e-05 5.8767 -5.87678 -2.03254 -8.39243 6.08736 -2.38419e-05 32.0382 9.53674e-05 -14.9159 1.23797e-05 -18.7755 14.1973 -1.49012e-06 -2.38419e-05 -40.7741 -0.628098 -49.8624 23.3813 0 1.63913e-05 1.67424e-05 -3.06317e-06 -110.736 26.2733 1.19209e-05 2.38419e-05 18.3419 0.010406 -26.6691 0.0062 0.0497 0.0339 0 0 0 0 0.0215 0 0 0 0 0 0.022 0 0 0 0 0 0.017 0 0 0 0 -0.0068 0.0873 0.0207 0 0 0 0 0.0267 0 0 0 0 0 0.0213 0 0 0 0 0 0.018 0 0 0 0 -0.0067 0.0922 0.0055 0 0 0 0 0.0266 0 0 0 0 0 0.0228 0 0 0 0 0 0.015 0 0 0 0 -0.0067 0.0925 -0.0113 0 0 0 0 0.0247 0 0 0 0 0 0.0221 0 0 0 0 0 0.018 0 0 0 0 -0.0066 0.0935 -0.0272 0 0 0 0 0.0163 0 0 0 0 0 0.0171 0 0 0 0 0 0.018 0 0 0 0 -2.38419e-05 32.0382 9.53674e-05 26.5812 -3.41509e-06 12.4168 -21.2515 -5.96046e-06 -7.15256e-05 28.6596 -26.3948 56.7618 -20.3504 0 2.38419e-05 2.90724e-05 8.98884e-06 113.758 -20.1464 2.38419e-05 -3.57628e-05 -21.9702 0.264841 -25.3037 -0.0062 0.0497 0.0339 0 0 0 0 0.0215 0 0 0 0 0 0.022 0 0 0 0 0 0.017 0 0 0 0 0.0068 0.0873 0.0207 0 0 0 0 0.0267 0 0 0 0 0 0.0213 0 0 0 0 0 0.018 0 0 0 0 0.0067 0.0922 0.0055 0 0 0 0 0.0266 0 0 0 0 0 0.0228 0 0 0 0 0 0.015 0 0 0 0 0.0067 0.0925 -0.0113 0 0 0 0 0.0247 0 0 0 0 0 0.0221 0 0 0 0 0 0.018 0 0 0 0 0.0066 0.0935 -0.0272 0 0 0 0 0.0163 0 0 0 0 0 0.0171 0 0 0 0 0 0.018 0 0 0 0 -2.38419e-05 32.0382 9.53674e-05 11.4038 0.0152552 -0.00306505 0 21.8173 -4.76837e-05 1.00318e-05 -1.10991e-05 1.70755e-06 
1.54969 -10.8462 -282.664 2.89067 5.8692 -31.4251 7.70863 -6.30338 0.970316 9.62388 -22.563 8.42807 -3.57628e-05 -42.308 0 -1.18442 23.8937 0 3.57628e-05 -35.8143 -4.76837e-05 -5.29642 -29.4416 -5.27975 -7.72908 -7.01866 2.96514 7.83785 -21.7361 7.23879 -2.38419e-05 -39.0894 -7.15256e-05 1.09196 25.7203 5.68599e-06 3.57628e-05 -36.8457 0 -15.3841 -38.9181 -16.942 -2.38419e-05 6.02885 -6.02882 -0.807032 -8.38562 3.90136 0 32.0382 -4.76837e-05 -17.4434 1.02453e-05 -17.6816 14.8468 -7.45058e-07 4.76837e-05 -36.6512 3.15555 -40.2572 22.5837 0 -2.38419e-05 5.48923e-05 -1.52482e-05 -115.08 25.4042 1.19209e-05 2.38419e-05 17.2619 0.0476792 -24.5263 0.0062 0.0497 0.0339 0 0 0 0 0.0215 0 0 0 0 0 0.022 0 0 0 0 0 0.017 0 0 0 0 -0.0068 0.0873 0.0207 0 0 0 0 0.0267 0 0 0 0 0 0.0213 0 0 0 0 0 0.018 0 0 0 0 -0.0067 0.0922 0.0055 0 0 0 0 0.0266 0 0 0 0 0 0.0228 0 0 0 0 0 0.015 0 0 0 0 -0.0067 0.0925 -0.0113 0 0 0 0 0.0247 0 0 0 0 0 0.0221 0 0 0 0 0 0.018 0 0 0 0 -0.0066 0.0935 -0.0272 0 0 0 0 0.0163 0 0 0 0 0 0.0171 0 0 0 0 0 0.018 0 0 0 0 0 32.0382 -4.76837e-05 23.0165 -3.4151e-06 12.9785 -20.0785 5.96046e-06 4.76837e-05 32.2746 -19.3581 43.5577 -19.7284 -1.19209e-05 2.38419e-05 8.83064e-06 1.80041e-05 120.033 -20.7113 0 -2.38419e-05 -25.4721 0.305418 -23.0566 -0.0062 0.0497 0.0339 0 0 0 0 0.0215 0 0 0 0 0 0.022 0 0 0 0 0 0.017 0 0 0 0 0.0068 0.0873 0.0207 0 0 0 0 0.0267 0 0 0 0 0 0.0213 0 0 0 0 0 0.018 0 0 0 0 0.0067 0.0922 0.0055 0 0 0 0 0.0266 0 0 0 0 0 0.0228 0 0 0 0 0 0.015 0 0 0 0 0.0067 0.0925 -0.0113 0 0 0 0 0.0247 0 0 0 0 0 0.0221 0 0 0 0 0 0.018 0 0 0 0 0.0066 0.0935 -0.0272 0 0 0 0 0.0163 0 0 0 0 0 0.0171 0 0 0 0 0 0.018 0 0 0 0 0 32.0382 -4.76837e-05 8.47421 -1.14359 0.170384 1.19209e-05 22.9773 0 1.02453e-05 -8.96462e-06 0 
1.54969 -10.8462 -282.664 2.89067 5.8692 -31.4251 7.70863 -6.30338 0.970316 9.62388 -22.563 8.42807 -3.57628e-05 -42.308 0 -1.18442 23.8937 0 3.57628e-05 -35.8143 -4.76837e-05 -5.29642 -29.4416 -5.27975 -7.72908 -7.01866 2.96514 7.83785 -21.7361 7.23879 -2.38419e-05 -39.0894 -7.15256e-05 1.09196 25.7203 5.68599e-06 3.57628e-05 -36.8457 0 -15.3841 -38.9181 -16.942 -2.38419e-05 6.02885 -6.02882 -0.807032 -8.38562 3.90136 0 32.0382 -4.76837e-05 -17.4434 1.02453e-05 -17.6816 14.8468 -7.45058e-07 4.76837e-05 -36.6512 3.15555 -40.2572 22.5837 0 -2.38419e-05 5.48923e-05 -1.52482e-05 -115.08 25.4042 1.19209e-05 2.38419e-05 17.2619 0.0476792 -24.5263 0.0062 0.0497 0.0339 0 0 0 0 0.0215 0 0 0 0 0 0.022 0 0 0 0 0 0.017 0 0 0 0 -0.0068 0.0873 0.0207 0 0 0 0 0.0267 0 0 0 0 0 0.0213 0 0 0 0 0 0.018 0 0 0 0 -0.0067 0.0922 0.0055 0 0 0 0 0.0266 0 0 0 0 0 0.0228 0 0 0 0 0 0.015 0 0 0 0 -0.0067 0.0925 -0.0113 0 0 0 0 0.0247 0 0 0 0 0 0.0221 0 0 0 0 0 0.018 0 0 0 0 -0.0066 0.0935 -0.0272 0 0 0 0 0.0163 0 0 0 0 0 0.0171 0 0 0 0 0 0.018 0 0 0 0 0 32.0382 -4.76837e-05 23.0165 -3.4151e-06 12.9785 -20.0785 5.96046e-06 4.76837e-05 32.2746 -19.3581 43.5577 -19.7284 -1.19209e-05 2.38419e-05 8.83064e-06 1.80041e-05 120.033 -20.7113 0 -2.38419e-05 -25.4721 0.305418 -23.0566 -0.0062 0.0497 0.0339 0 0 0 0 0.0215 0 0 0 0 0 0.022 0 0 0 0 0 0.017 0 0 0 0 0.0068 0.0873 0.0207 0 0 0 0 0.0267 0 0 0 0 0 0.0213 0 0 0 0 0 0.018 0 0 0 0 0.0067 0.0922 0.0055 0 0 0 0 0.0266 0 0 0 0 0 0.0228 0 0 0 0 0 0.015 0 0 0 0 0.0067 0.0925 -0.0113 0 0 0 0 0.0247 0 0 0 0 0 0.0221 0 0 0 0 0 0.018 0 0 0 0 0.0066 0.0935 -0.0272 0 0 0 0 0.0163 0 0 0 0 0 0.0171 0 0 0 0 0 0.018 0 0 0 0 0 32.0382 -4.76837e-05 8.47421 -1.14359 0.170384 1.19209e-05 22.9773 0 1.02453e-05 -8.96462e-06 0 
